<svg width="48" height="42" viewBox="0 0 48 42" fill="none" xmlns="http://www.w3.org/2000/svg">
<path fill-rule="evenodd" clip-rule="evenodd" d="M29.0668 39.5084H32.0707C32.8786 39.5084 33.5712 40.38 33.5712 41.5088V2.00239C33.5712 0.923442 32.9176 0 32.0707 0H29.0668C28.2588 0 27.5648 0.873526 27.5648 2.00239V41.5088C27.5648 40.4318 28.2198 39.5084 29.0668 39.5084Z" fill="#9757EB"/>
<path d="M47.6464 23.4059V18.2216C46.6937 18.1687 45.9682 17.9081 45.474 17.3849C44.9784 16.8599 44.6727 16.1271 44.4828 15.1317C44.2914 14.1384 44.2157 12.4612 44.2157 10.1571C44.2157 7.69617 44.14 5.91711 43.9486 4.81794C43.7586 3.71681 43.453 2.82728 42.9573 2.0945C42.4617 1.41266 41.8147 0.889526 41.0134 0.523135C40.2136 0.209646 39.1081 0 37.6969 0H36.8585V5.18433C38.2697 5.18433 39.1466 5.39202 39.5266 5.76037C39.9079 6.12676 40.0608 7.01628 40.0608 8.3251C40.0608 12.3574 40.2507 15.1846 40.5949 16.8089C40.9377 18.4312 41.7761 19.74 43.0345 20.7883C42.0804 21.521 41.3191 22.5673 40.8235 24.0348C40.3278 25.4475 40.0608 28.5373 40.0608 33.3024C40.0608 34.4544 39.9465 35.1343 39.718 35.5027C39.4894 35.8162 39.2223 36.0768 38.9553 36.2355C38.6882 36.3922 38.0026 36.4451 36.8585 36.4451V41.6275H37.6969C39.8322 41.6275 41.242 41.2611 42.0047 40.5812C42.7674 39.8484 43.3001 39.0627 43.6443 38.1203C43.9871 37.1779 44.1771 35.0305 44.1771 31.5743C44.1771 29.2701 44.2542 27.5949 44.4442 26.5996C44.6342 25.6042 44.9398 24.8205 45.4354 24.2954C45.931 23.7723 46.6552 23.4588 47.6079 23.4059H47.6464ZM0 23.4059C0.9541 23.4588 1.67824 23.7723 2.17243 24.2954C2.66805 24.8205 2.97371 25.5533 3.16367 26.5467C3.35506 27.542 3.43076 29.2172 3.43076 31.5743C3.43076 34.9266 3.62215 37.125 3.96494 38.1203C4.30773 39.1156 4.91761 39.9523 5.71746 40.6341C6.51873 41.314 7.92845 41.6275 9.94949 41.6275H10.7879V36.4451C9.45387 36.4451 8.61546 36.2355 8.19554 35.8162C7.77563 35.3969 7.58566 34.5583 7.58566 33.3024C7.58566 29.1663 7.3957 26.2861 7.01435 24.6618C6.63299 23.0395 5.83172 21.7816 4.65052 20.8392C5.94598 19.7929 6.74726 18.4312 7.09005 16.756C7.43284 15.0808 7.58566 12.3045 7.58566 8.378C7.58566 7.01628 7.77563 6.1777 8.15698 5.81131C8.53833 5.44492 9.41531 5.23527 10.7879 5.23527V0.0529013H9.94949C8.11984 0.0529013 6.74726 0.36639 5.83172 0.995329C4.91761 1.62231 4.26917 2.56474 3.96494 3.82261C3.62215 5.07853 3.46932 7.17303 3.46932 10.1571C3.46932 12.4612 3.3922 14.0855 3.20223 15.0808C3.01227 16.0742 2.70661 16.8599 2.211 17.3849C1.71538 17.9081 0.991235 18.2216 0.0385639 18.2745V23.4588L0 23.4059Z" fill="url(#paint0_linear_1_133)"/>
<path fill-rule="evenodd" clip-rule="evenodd" d="M22.3704 38.2114H25.3712C26.1783 38.2114 26.8715 39.0533 26.8715 40.1438V11.2989C26.8715 10.2585 26.2172 9.36462 25.3712 9.36462H22.3704C21.5633 9.36462 20.8715 10.2084 20.8715 11.2989V40.1438C20.8715 41.1841 21.5244 38.2114 22.3704 38.2114Z" fill="#6976E2"/>
<path fill-rule="evenodd" clip-rule="evenodd" d="M15.1669 39.5084H18.1708C18.9787 39.5084 19.6713 40.38 19.6713 41.5088V2.00239C19.6713 0.923442 19.0177 0 18.1708 0H15.1669C14.3589 0 13.6649 0.873526 13.6649 2.00239V41.5088C13.6649 40.4318 14.3199 39.5084 15.1669 39.5084Z" fill="#9757EB"/>
<defs>
<linearGradient id="paint0_linear_1_133" x1="-23.1429" y1="-25" x2="100.421" y2="68.0365" gradientUnits="userSpaceOnUse">
<stop stop-color="#6420BD"/>
<stop offset="1" stop-color="#6DB7FD"/>
</linearGradient>
</defs>
</svg>
