<svg width="33" height="29" viewBox="0 0 33 29" fill="none" xmlns="http://www.w3.org/2000/svg">
<path fill-rule="evenodd" clip-rule="evenodd" d="M0 14.5C0 13.9507 0.217275 13.4239 0.604025 13.0355C0.990776 12.6471 1.51532 12.4289 2.06227 12.4289H25.9557L17.1003 3.53998C16.7131 3.15109 16.4956 2.62364 16.4956 2.07367C16.4956 1.5237 16.7131 0.996253 17.1003 0.607365C17.4876 0.218476 18.0128 0 18.5604 0C19.1081 0 19.6333 0.218476 20.0205 0.607365L32.3941 13.0337C32.5862 13.2261 32.7386 13.4546 32.8425 13.7062C32.9465 13.9578 33 14.2276 33 14.5C33 14.7724 32.9465 15.0422 32.8425 15.2938C32.7386 15.5454 32.5862 15.7739 32.3941 15.9663L20.0205 28.3926C19.6333 28.7815 19.1081 29 18.5604 29C18.0128 29 17.4876 28.7815 17.1003 28.3926C16.7131 28.0037 16.4956 27.4763 16.4956 26.9263C16.4956 26.3764 16.7131 25.8489 17.1003 25.46L25.9557 16.5711H2.06227C1.51532 16.5711 0.990776 16.3529 0.604025 15.9645C0.217275 15.5761 0 15.0493 0 14.5Z" fill="#424242"/>
</svg>
