<svg width="35" height="36" viewBox="0 0 35 36" fill="none" xmlns="http://www.w3.org/2000/svg">
<path d="M2.27543 36V31.4161H8.42392L3.29211 13.7632C2.25929 13.2755 1.4524 12.6172 0.87144 11.7882C0.29048 10.9592 0 9.86199 0 8.49657C0 6.96861 0.556753 5.64382 1.67026 4.52223C2.78377 3.40064 4.099 2.83984 5.61595 2.83984C7.03607 2.83984 8.21413 3.22183 9.15012 3.98582C10.0861 4.7498 10.7155 5.76574 11.0382 7.03363H18.1066V4.15649C18.1066 3.76637 18.2518 3.42502 18.5423 3.13243C18.8328 2.83984 19.1717 2.69355 19.559 2.69355C19.914 2.69355 20.2126 2.83171 20.4546 3.10805C20.6967 3.38438 20.8177 3.70135 20.8177 4.05896L24.4487 0.547888C24.7069 0.287809 25.0378 0.117131 25.4412 0.0358566C25.8447 -0.0454183 26.2562 0.0114741 26.6758 0.206534L34.3251 3.91267C34.6155 4.07522 34.8173 4.30279 34.9302 4.59538C35.0432 4.88797 35.019 5.19681 34.8576 5.52191C34.6962 5.84701 34.4622 6.04207 34.1556 6.10709C33.849 6.17211 33.5504 6.12335 33.26 5.9608L25.7559 2.30343L21.0114 7.13116V9.66693L25.7559 14.6897L33.26 10.9836C33.5827 10.821 33.8893 10.7804 34.1798 10.8617C34.4703 10.9429 34.6962 11.1461 34.8576 11.4712C35.019 11.7963 35.0432 12.1214 34.9302 12.4465C34.8173 12.7716 34.5994 13.0155 34.2766 13.178L26.8694 16.6891C26.4175 16.9167 25.9818 17.0223 25.5622 17.0061C25.1427 16.9898 24.7715 16.8191 24.4487 16.494L20.8177 12.9829C20.8177 13.4381 20.6967 13.7794 20.4546 14.007C20.2126 14.2346 19.914 14.3484 19.559 14.3484C19.1717 14.3484 18.8328 14.2021 18.5423 13.9095C18.2518 13.6169 18.1066 13.2755 18.1066 12.8854V9.95952H10.9414C10.9414 10.3496 10.8365 10.7479 10.6267 11.1543C10.4169 11.5606 10.1668 11.8939 9.87632 12.1539L19.8011 31.4161H27.4504V36H2.27543ZM5.61595 11.2274C6.39056 11.2274 7.03607 10.9673 7.55248 10.4472C8.06889 9.92701 8.32709 9.27681 8.32709 8.49657C8.32709 7.71633 8.06889 7.06613 7.55248 6.54598C7.03607 6.02582 6.39056 5.76574 5.61595 5.76574C4.84133 5.76574 4.19582 6.02582 3.67941 6.54598C3.16301 7.06613 2.9048 7.71633 2.9048 8.49657C2.9048 9.27681 3.16301 9.92701 3.67941 10.4472C4.19582 10.9673 4.84133 11.2274 5.61595 11.2274ZM11.6192 31.4161H16.5574L7.40724 13.5194C7.31041 13.5844 7.14904 13.6494 6.92311 13.7144C6.69718 13.7794 6.51966 13.8282 6.39056 13.8607L11.6192 31.4161Z" fill="#F8D872"/>
</svg>
