<svg width="44" height="44" viewBox="0 0 44 44" fill="none" xmlns="http://www.w3.org/2000/svg">
<path d="M15.3084 38.5V35.75H19.25V31.1667H6.41669C5.68335 31.1667 5.04169 30.8917 4.49169 30.3417C3.94169 29.7917 3.66669 29.15 3.66669 28.4167V8.25C3.66669 7.51667 3.94169 6.875 4.49169 6.325C5.04169 5.775 5.68335 5.5 6.41669 5.5H37.5834C38.3167 5.5 38.9584 5.775 39.5084 6.325C40.0584 6.875 40.3334 7.51667 40.3334 8.25V28.4167C40.3334 29.15 40.0584 29.7917 39.5084 30.3417C38.9584 30.8917 38.3167 31.1667 37.5834 31.1667H24.75V35.75H28.6917V38.5H15.3084ZM6.41669 28.4167H37.5834V8.25H6.41669V28.4167Z" fill="#1CF6F4"/>
</svg>
