<svg width="40" height="40" viewBox="0 0 40 40" fill="none" xmlns="http://www.w3.org/2000/svg">
<path d="M10.8333 38.3333C10.1667 38.3333 9.58334 38.0833 9.08334 37.5833C8.58334 37.0833 8.33334 36.5 8.33334 35.8333V4.16663C8.33334 3.49996 8.58334 2.91663 9.08334 2.41663C9.58334 1.91663 10.1667 1.66663 10.8333 1.66663H29.1667C29.8333 1.66663 30.4167 1.91663 30.9167 2.41663C31.4167 2.91663 31.6667 3.49996 31.6667 4.16663V35.8333C31.6667 36.5 31.4167 37.0833 30.9167 37.5833C30.4167 38.0833 29.8333 38.3333 29.1667 38.3333H10.8333ZM10.8333 34.5833V35.8333H29.1667V34.5833H10.8333ZM10.8333 32.0833H29.1667V7.91663H10.8333V32.0833ZM10.8333 5.41663H29.1667V4.16663H10.8333V5.41663Z" fill="#3CE962"/>
</svg>
