<svg width="49" height="49" viewBox="0 0 49 49" fill="none" xmlns="http://www.w3.org/2000/svg">
<path d="M7.14587 40.8333C6.32921 40.8333 5.61462 40.527 5.00212 39.9145C4.38962 39.302 4.08337 38.5875 4.08337 37.7708V11.2291C4.08337 10.4125 4.38962 9.69788 5.00212 9.08538C5.61462 8.47288 6.32921 8.16663 7.14587 8.16663H41.8542C42.6709 8.16663 43.3855 8.47288 43.998 9.08538C44.6105 9.69788 44.9167 10.4125 44.9167 11.2291V37.7708C44.9167 38.5875 44.6105 39.302 43.998 39.9145C43.3855 40.527 42.6709 40.8333 41.8542 40.8333H7.14587ZM7.14587 37.7708H41.8542V15.5166H7.14587V37.7708Z" fill="#7684FA"/>
</svg>
